Coordinates
version=1
nRows=16
nColumns=38
inDegrees=no

Units are S.I. units (second, meters, Newtons, ...)
If the header above contains a line with 'inDegrees', this indicates whether rotational values are in degrees (yes) or radians (no).

endheader
time	pelvis_tilt	pelvis_list	pelvis_rotation	pelvis_tx	pelvis_ty	pelvis_tz	hip_flexion_r	hip_adduction_r	hip_rotation_r	knee_angle_r	ankle_angle_r	subtalar_angle_r	mtp_angle_r	hip_flexion_l	hip_adduction_l	hip_rotation_l	knee_angle_l	ankle_angle_l	subtalar_angle_l	mtp_angle_l	lumbar_extension	lumbar_bending	lumbar_rotation	arm_flex_r	arm_add_r	arm_rot_r	elbow_flex_r	pro_sup_r	wrist_flex_r	wrist_dev_r	arm_flex_l	arm_add_l	arm_rot_l	elbow_flex_l	pro_sup_l	wrist_flex_l	wrist_dev_l
0.983333	-0.0608768	-0.0539124	-0.158406	0.909162	1.00558	-0.625296	0.134657	-0.00135747	-0.234007	-0.829457	0.810092	0.0999993	5.49557e-06	0.848561	-0.141281	-0.186056	-2.05447	0.316313	0.0889053	2.35262e-07	-0.320152	0.0519666	0.278781	0.147933	-0.591644	-0.094368	2.03908	2.05457	-0.0135184	-0.0240283	-0.375188	-0.378599	0.245915	1.85486	1.79302	0.025745	-0.012019
0.991667	-0.0723972	-0.0259059	-0.163514	0.912093	1.00815	-0.624578	0.0843464	-0.0380229	-0.242115	-0.779942	0.754072	0.0999993	5.49557e-06	0.894048	-0.122207	-0.201991	-1.98192	0.323102	0.0889053	2.35262e-07	-0.292036	0.0193029	0.291906	0.160932	-0.580741	-0.0944786	2.08966	2.0623	-0.0135184	-0.0240283	-0.414441	-0.388757	0.231938	1.88577	1.80891	0.025745	-0.012019
1	-0.0833271	0.000686584	-0.166096	0.915616	1.01116	-0.623981	0.032934	-0.0717032	-0.254268	-0.724561	0.680225	0.0999993	5.49557e-06	0.931663	-0.103476	-0.21739	-1.90079	0.329005	0.0889053	2.35262e-07	-0.263671	-0.0112925	0.301444	0.17266	-0.56946	-0.0901969	2.13895	2.06625	-0.0135184	-0.0240283	-0.456903	-0.396218	0.213705	1.91645	1.82207	0.025745	-0.012019
1.00833	-0.0931735	0.0246869	-0.165735	0.91959	1.01451	-0.623536	-0.0193644	-0.100807	-0.269769	-0.665314	0.591454	0.0999993	5.49557e-06	0.961054	-0.085261	-0.23058	-1.81192	0.334568	0.0889053	2.35262e-07	-0.236317	-0.0386948	0.307285	0.183468	-0.558383	-0.0811422	2.18647	2.06578	-0.0135184	-0.0240283	-0.501753	-0.400644	0.191666	1.94613	1.83199	0.025745	-0.012019
1.01667	-0.101594	0.0450853	-0.162361	0.923858	1.01807	-0.623245	-0.0719252	-0.124023	-0.287166	-0.605042	0.492398	0.0999993	5.49557e-06	0.98207	-0.0678364	-0.240326	-1.71604	0.34071	0.0889053	2.35262e-07	-0.211016	-0.0620319	0.309633	0.193407	-0.548003	-0.0674742	2.23201	2.06091	-0.0135184	-0.0240283	-0.547942	-0.401997	0.166561	1.97439	1.83842	0.025745	-0.012019
1.025	-0.108439	0.0610762	-0.156228	0.928254	1.02168	-0.623084	-0.123679	-0.140434	-0.304447	-0.547363	0.389303	0.0999993	5.49557e-06	0.994812	-0.0516276	-0.245975	-1.61381	0.348695	0.0889053	2.35262e-07	-0.188497	-0.0806936	0.308986	0.20225	-0.538701	-0.0497949	2.27556	2.05219	-0.0135184	-0.0240283	-0.594206	-0.400547	0.139393	2.00105	1.8414	0.025745	-0.012019
1.03333	-0.113742	0.0721276	-0.147839	0.93262	1.02517	-0.623008	-0.173199	-0.149593	-0.319321	-0.496372	0.289389	0.0999993	5.49557e-06	0.999642	-0.0371647	-0.247531	-1.50592	0.359954	0.0889053	2.35262e-07	-0.169139	-0.0943391	0.306062	0.209534	-0.530732	-0.0290194	2.31708	2.04059	-0.0135184	-0.0240283	-0.639118	-0.396839	0.111364	2.02604	1.84133	0.025745	-0.012019
1.04167	-0.117669	0.078051	-0.137846	0.936812	1.0284	-0.622955	-0.218889	-0.15158	-0.329611	-0.456225	0.199843	0.0999993	5.49557e-06	0.997162	-0.0249845	-0.245706	-1.3932	0.375901	0.0889053	2.35262e-07	-0.153009	-0.102927	0.301691	0.214611	-0.524215	-0.00624441	2.35646	2.02737	-0.0135184	-0.0240283	-0.681153	-0.391624	0.0837803	2.04931	1.83891	0.025745	-0.012019
1.05	-0.120438	0.0790517	-0.126953	0.94072	1.03123	-0.62287	-0.259208	-0.147023	-0.333686	-0.430664	0.126629	0.0999993	5.49557e-06	0.988148	-0.015495	-0.241853	-1.27679	0.397651	0.0889053	2.35262e-07	-0.139964	-0.10675	0.296698	0.21672	-0.519115	0.0173643	2.3934	2.01401	-0.0135184	-0.0240283	-0.718782	-0.385778	0.0579419	2.07074	1.83506	0.025745	-0.012019
1.05833	-0.122215	0.0757308	-0.115823	0.94428	1.03357	-0.622712	-0.29288	-0.137056	-0.330791	-0.422606	0.0734269	0.0999993	5.49557e-06	0.973482	-0.00885081	-0.23779	-1.15819	0.425702	0.0889053	2.35262e-07	-0.129769	-0.106447	0.291797	0.215072	-0.51525	0.0406567	2.42734	2.00207	-0.0135184	-0.0240283	-0.750559	-0.380203	0.0350267	2.09011	1.83078	0.025745	-0.012019
1.06667	-0.123063	0.0690122	-0.10501	0.947465	1.03538	-0.62246	-0.319061	-0.12314	-0.321031	-0.433807	0.041047	0.0999993	5.49557e-06	0.954088	-0.0049172	-0.235572	-1.03944	0.459764	0.0889053	2.35262e-07	-0.122217	-0.102963	0.287501	0.208951	-0.512293	0.0625615	2.45755	1.99315	-0.0135184	-0.0240283	-0.775222	-0.375737	0.0159886	2.10712	1.82702	0.025745	-0.012019
1.075	-0.122929	0.060048	-0.094909	0.950277	1.03663	-0.622116	-0.337422	-0.106875	-0.305344	-0.464752	0.027539	0.0999993	5.49557e-06	0.930906	-0.00327816	-0.237138	-0.923075	0.498604	0.0889053	2.35262e-07	-0.117203	-0.0974377	0.28407	0.197806	-0.509812	0.0821361	2.48317	1.98861	-0.0135184	-0.0240283	-0.791791	-0.373073	0.00148526	2.12141	1.82452	0.025745	-0.012019
1.08333	-0.121667	0.0500659	-0.0857231	0.952727	1.0373	-0.621701	-0.348117	-0.0898235	-0.285367	-0.514733	0.0289456	0.0999993	5.49557e-06	0.904876	-0.00328524	-0.243936	-0.812068	0.539993	0.0889053	2.35262e-07	-0.114722	-0.0910662	0.28148	0.181341	-0.50732	0.0986125	2.50332	1.98933	-0.0135184	-0.0240283	-0.799637	-0.372693	-0.0081534	2.13262	1.82372	0.025745	-0.012019
1.09167	-0.119096	0.0402168	-0.0774582	0.954829	1.0374	-0.62125	-0.351702	-0.0733143	-0.263038	-0.582024	0.0403745	0.0999993	5.49557e-06	0.876937	-0.004186	-0.256689	-0.709588	0.580898	0.0889053	2.35262e-07	-0.114831	-0.0849455	0.27944	0.159569	-0.50435	0.111443	2.51727	1.99545	-0.0135184	-0.0240283	-0.798532	-0.374846	-0.0129107	2.14048	1.82468	0.025745	-0.012019
1.1	-0.115075	0.0314652	-0.0699416	0.956588	1.03693	-0.620805	-0.349	-0.0583676	-0.240321	-0.664163	0.0570406	0.0999993	5.49557e-06	0.848	-0.00521628	-0.275212	-0.618694	0.61776	0.0889053	2.35262e-07	-0.117595	-0.0799584	0.277433	0.132843	-0.50051	0.120339	2.52448	2.00612	-0.0135184	-0.0240283	-0.788651	-0.379546	-0.0130326	2.14485	1.82705	0.025745	-0.012019
1.10833	-0.109546	0.0245386	-0.0628527	0.958009	1.03591	-0.62042	-0.340956	-0.0457152	-0.219069	-0.758281	0.0750008	0.0999993	5.49557e-06	0.81889	-0.00563663	-0.298325	-0.541964	0.646831	0.0889053	2.35262e-07	-0.123039	-0.0767152	0.274766	0.101851	-0.495535	0.125294	2.5247	2.0196	-0.0135184	-0.0240283	-0.770525	-0.386611	-0.00895607	2.14573	1.83011	0.025745	-0.012019
